<svg xmlns="http://www.w3.org/2000/svg" viewBox="0 0 153 153"><defs><style>.cls-1{fill:#492660;}.cls-2{fill:#fff;}</style></defs><title>Logo-Icon</title><g id="Laag_2" data-name="Laag 2"><g id="Laag_1-2" data-name="Laag 1"><g id="Laag_2-2" data-name="Laag 2"><g id="Layer_1" data-name="Layer 1"><circle class="cls-1" cx="76.5" cy="76.5" r="76.5"/><path class="cls-2" d="M76.17,14.87,91.63,30.33,52,70s-3.7,4,0,7.7l20,20L56.2,113.5,32.37,89.59l.33-31.25Z"/><path class="cls-2" d="M20.86,70.18s-4.09,3.82,0,7.9L32.37,89.59,48.11,73.77,32.7,58.34"/><path class="cls-2" d="M77.79,135.13,62.34,119.67,102,80.05s3.7-4,0-7.7l-20-20L97.8,36.56l23.8,23.85-.34,31.25Z"/><path class="cls-2" d="M133.11,79.82s4.08-3.82,0-7.9L121.6,60.41,105.85,76.23l15.41,15.43"/></g></g></g></g></svg>